<svg xmlns="http://www.w3.org/2000/svg" xmlns:xlink="http://www.w3.org/1999/xlink" width="160.276" height="32.845" viewBox="0 0 160.276 32.845">
  <defs>
    <linearGradient id="logo_linear_gradient" x1="0.5" x2="0.5" y2="1" gradientUnits="objectBoundingBox">
      <stop offset="0" stop-color="#0045ff"></stop>
      <stop offset="1" stop-color="#bd29f2"></stop>
    </linearGradient>
  </defs>
  <g transform="translate(-253.392 -331.008)">
    <g transform="translate(253.392 331.008)">
      <g transform="translate(0 0)">
        <g transform="translate(0 0.803)">
          <path data-name="Path 7" d="M183.3,167.653c0,6.739-4.24,13.968-13.611,13.968-8.122,0-13.611-5.623-13.611-13.968V152.525a2.968,2.968,0,0,1,5.935,0v15.128c0,2.454.714,8.033,7.676,8.033,5.667,0,7.676-4.15,7.676-8.033v-6.248a2.968,2.968,0,0,1,5.935,0v6.248Z" transform="translate(-156.076 -149.579)" stroke="#c02367" stroke-miterlimit="2" stroke-width="0" fill="url(#logo_linear_gradient)"></path>
          <g data-name="Component 1 – 1" transform="translate(21.287 0)">
            <path data-name="Path 8" d="M224.77,152.525a2.968,2.968,0,1,1,2.99,2.99A2.981,2.981,0,0,1,224.77,152.525Z" transform="translate(-224.77 -149.579)" stroke="#c02367" stroke-miterlimit="2" stroke-width="0" fill="url(#logo_linear_gradient)"></path>
          </g>
        </g>
        <g transform="translate(34.944 0.803)">
          <path data-name="Path 9" d="M175.415,177.872a2.945,2.945,0,1,1-5.891,0V155.514h-6.471a2.968,2.968,0,0,1,0-5.935h9.416a2.86,2.86,0,0,1,2.946,2.945v25.348Z" transform="translate(-160.108 -149.579)" stroke="#c02367" stroke-miterlimit="2" stroke-width="0" fill="url(#logo_linear_gradient)"></path>
          <path data-name="Path 10" d="M226.673,152.525a2.968,2.968,0,1,1-2.946-2.945A2.981,2.981,0,0,1,226.673,152.525Z" transform="translate(-201.95 -149.579)" stroke="#c02367" stroke-miterlimit="2" stroke-width="0" fill="url(#logo_linear_gradient)"></path>
        </g>
        <g transform="translate(68.067 0.803)">
          <path data-name="Path 11" d="M168.959,180.818a2.971,2.971,0,0,1-2.945-2.946V152.525a2.971,2.971,0,0,1,2.945-2.945h6.159a2.968,2.968,0,0,1,0,5.935h-3.168v6.828H182.3a2.836,2.836,0,1,1,0,5.667H171.949v6.872h12.183a2.968,2.968,0,0,1,0,5.935H168.959Z" transform="translate(-166.014 -149.579)" stroke="#c02367" stroke-miterlimit="2" stroke-width="0" fill="url(#logo_linear_gradient)"></path>
          <path data-name="Path 12" d="M217.391,155.514a2.968,2.968,0,1,1,2.945-2.99A2.99,2.99,0,0,1,217.391,155.514Z" transform="translate(-199.407 -149.579)" stroke="#c02367" stroke-miterlimit="2" stroke-width="0" fill="url(#logo_linear_gradient)"></path>
        </g>
        <g transform="translate(97.531)">
          <path data-name="Path 13" d="M165.457,172.646a13.6,13.6,0,0,0,5.668,1.7c2.142.223,3.035,1.294,3.035,2.678,0,1.473-.982,2.811-3.749,2.811a16.423,16.423,0,0,1,0-32.845,16.667,16.667,0,0,1,10.576,3.348,3.04,3.04,0,0,1,.4,4.15c-.8,1.205-2.455,1.249-4.106.357a13.583,13.583,0,0,0-6.872-1.919,10.484,10.484,0,0,0-4.953,19.725Z" transform="translate(-153.988 -146.985)" stroke="#c02367" stroke-miterlimit="2" stroke-width="0" fill="url(#logo_linear_gradient)"></path>
          <path data-name="Path 14" d="M226.858,227.267a2.968,2.968,0,1,1,2.946,2.99A2.971,2.971,0,0,1,226.858,227.267Z" transform="translate(-204.277 -200.357)" stroke="#c02367" stroke-miterlimit="2" stroke-width="0" fill="url(#logo_linear_gradient)"></path>
        </g>
        <g transform="translate(135.553 0.803)">
          <path data-name="Path 15" d="M160.108,152.525a2.968,2.968,0,0,1,5.935,0v10.264H178.9v-1.384a2.968,2.968,0,0,1,5.935,0v16.467a2.968,2.968,0,0,1-5.935,0v-9.505H166.044v9.505a2.968,2.968,0,0,1-5.935,0Z" transform="translate(-160.108 -149.579)" stroke="#c02367" stroke-miterlimit="2" stroke-width="0" fill="url(#logo_linear_gradient)"></path>
          <path data-name="Path 16" d="M220.738,152.525a2.968,2.968,0,1,1,2.99,2.99A2.981,2.981,0,0,1,220.738,152.525Z" transform="translate(-201.95 -149.579)" stroke="#c02367" stroke-miterlimit="2" stroke-width="0" fill="url(#logo_linear_gradient)"></path>
        </g>
      </g>
    </g>
  </g>
</svg>